<svg width="37" height="38" viewBox="0 0 37 38" fill="none" xmlns="http://www.w3.org/2000/svg">
<path id="Vector" d="M25.8 27.9499L27.05 26.6999L19.15 18.6764V8.7999H17.4V19.4999L25.8 27.9499ZM18.2225 37.2999C15.7195 37.2999 13.3613 36.8181 11.148 35.8544C8.93467 34.8907 7.00583 33.5876 5.3615 31.9449C3.71683 30.3022 2.41217 28.3757 1.4475 26.1654C0.4825 23.9547 0 21.5979 0 19.0949C0 16.5832 0.482833 14.2299 1.4485 12.0349C2.41417 9.84024 3.72 7.91773 5.366 6.2674C7.012 4.6174 8.9385 3.3104 11.1455 2.3464C13.3528 1.38207 15.706 0.899902 18.205 0.899902C20.7163 0.899902 23.0693 1.3814 25.264 2.3444C27.4587 3.3074 29.3812 4.61324 31.0315 6.2619C32.6822 7.91057 33.9895 9.83123 34.9535 12.0239C35.9178 14.2169 36.4 16.5694 36.4 19.0814C36.4 21.5937 35.9185 23.9509 34.9555 26.1529C33.9925 28.3549 32.6868 30.2797 31.0385 31.9274C29.3905 33.5754 27.4703 34.8829 25.278 35.8499C23.086 36.8166 20.7342 37.2999 18.2225 37.2999ZM18.2 35.5499C22.7333 35.5499 26.6083 33.9479 29.825 30.7439C33.0417 27.5396 34.65 23.6582 34.65 19.0999C34.65 14.5666 33.0417 10.6916 29.825 7.4749C26.6083 4.25824 22.725 2.6499 18.175 2.6499C13.625 2.6499 9.75 4.25824 6.55 7.4749C3.35 10.6916 1.75 14.5749 1.75 19.1249C1.75 23.6749 3.352 27.5499 6.556 30.7499C9.76033 33.9499 13.6417 35.5499 18.2 35.5499Z" fill="#271B75"/>
</svg>
