<svg width="33" height="37" viewBox="0 0 33 37" fill="none" xmlns="http://www.w3.org/2000/svg">
<path id="Vector" d="M16.1905 23.3C15.7968 23.3 15.4417 23.1385 15.125 22.8155C14.8083 22.4922 14.65 22.1338 14.65 21.7405C14.65 21.3468 14.8115 20.9917 15.1345 20.675C15.4578 20.3583 15.8162 20.2 16.2095 20.2C16.6032 20.2 16.9583 20.3615 17.275 20.6845C17.5917 21.0078 17.75 21.3662 17.75 21.7595C17.75 22.1532 17.5885 22.5083 17.2655 22.825C16.9422 23.1417 16.5838 23.3 16.1905 23.3ZM8.1905 23.3C7.79683 23.3 7.44167 23.1385 7.125 22.8155C6.80833 22.4922 6.65 22.1338 6.65 21.7405C6.65 21.3468 6.8115 20.9917 7.1345 20.675C7.45783 20.3583 7.81617 20.2 8.2095 20.2C8.60317 20.2 8.95833 20.3615 9.275 20.6845C9.59167 21.0078 9.75 21.3662 9.75 21.7595C9.75 22.1532 9.5885 22.5083 9.2655 22.825C8.94217 23.1417 8.58383 23.3 8.1905 23.3ZM24.1905 23.3C23.7968 23.3 23.4417 23.1385 23.125 22.8155C22.8083 22.4922 22.65 22.1338 22.65 21.7405C22.65 21.3468 22.8115 20.9917 23.1345 20.675C23.4578 20.3583 23.8162 20.2 24.2095 20.2C24.6032 20.2 24.9583 20.3615 25.275 20.6845C25.5917 21.0078 25.75 21.3662 25.75 21.7595C25.75 22.1532 25.5885 22.5083 25.2655 22.825C24.9422 23.1417 24.5838 23.3 24.1905 23.3ZM16.1905 30.9C15.7968 30.9 15.4417 30.7385 15.125 30.4155C14.8083 30.0922 14.65 29.7338 14.65 29.3405C14.65 28.9468 14.8115 28.5917 15.1345 28.275C15.4578 27.9583 15.8162 27.8 16.2095 27.8C16.6032 27.8 16.9583 27.9615 17.275 28.2845C17.5917 28.6078 17.75 28.9662 17.75 29.3595C17.75 29.7532 17.5885 30.1083 17.2655 30.425C16.9422 30.7417 16.5838 30.9 16.1905 30.9ZM8.1905 30.9C7.79683 30.9 7.44167 30.7385 7.125 30.4155C6.80833 30.0922 6.65 29.7338 6.65 29.3405C6.65 28.9468 6.8115 28.5917 7.1345 28.275C7.45783 27.9583 7.81617 27.8 8.2095 27.8C8.60317 27.8 8.95833 27.9615 9.275 28.2845C9.59167 28.6078 9.75 28.9662 9.75 29.3595C9.75 29.7532 9.5885 30.1083 9.2655 30.425C8.94217 30.7417 8.58383 30.9 8.1905 30.9ZM24.1905 30.9C23.7968 30.9 23.4417 30.7385 23.125 30.4155C22.8083 30.0922 22.65 29.7338 22.65 29.3405C22.65 28.9468 22.8115 28.5917 23.1345 28.275C23.4578 27.9583 23.8162 27.8 24.2095 27.8C24.6032 27.8 24.9583 27.9615 25.275 28.2845C25.5917 28.6078 25.75 28.9662 25.75 29.3595C25.75 29.7532 25.5885 30.1083 25.2655 30.425C24.9422 30.7417 24.5838 30.9 24.1905 30.9ZM3.35 36.9C2.43333 36.9 1.64583 36.5708 0.9875 35.9125C0.329167 35.2542 0 34.4667 0 33.55V7.55C0 6.63333 0.329167 5.84583 0.9875 5.1875C1.64583 4.52917 2.43333 4.2 3.35 4.2H6.95V0H8.95V4.2H23.65V0H25.5V4.2H29.05C29.9667 4.2 30.7542 4.52917 31.4125 5.1875C32.0708 5.84583 32.4 6.63333 32.4 7.55V33.55C32.4 34.4667 32.0708 35.2542 31.4125 35.9125C30.7542 36.5708 29.9667 36.9 29.05 36.9H3.35ZM3.35 35.15H29.05C29.45 35.15 29.8167 34.9833 30.15 34.65C30.4833 34.3167 30.65 33.95 30.65 33.55V15.7H1.75V33.55C1.75 33.95 1.91667 34.3167 2.25 34.65C2.58333 34.9833 2.95 35.15 3.35 35.15Z" fill="#271B75"/>
</svg>
