<svg width="29" height="37" viewBox="0 0 29 37" fill="none" xmlns="http://www.w3.org/2000/svg">
<path id="Vector" d="M14.4695 17.9498C15.3232 17.9498 16.05 17.6433 16.65 17.0303C17.25 16.4173 17.55 15.684 17.55 14.8303C17.55 13.9766 17.2435 13.2498 16.6305 12.6498C16.0175 12.0498 15.2842 11.7498 14.4305 11.7498C13.5768 11.7498 12.85 12.0563 12.25 12.6693C11.65 13.2823 11.35 14.0156 11.35 14.8693C11.35 15.723 11.6565 16.4498 12.2695 17.0498C12.8825 17.6498 13.6158 17.9498 14.4695 17.9498ZM14.45 34.4498C18.1833 31.3165 21.2333 27.9761 23.6 24.4288C25.9667 20.8815 27.15 17.7718 27.15 15.0998C27.15 11.4118 25.9503 8.30647 23.551 5.7838C21.152 3.26114 18.1153 1.9998 14.441 1.9998C10.7663 1.9998 7.7325 3.26114 5.3395 5.7838C2.9465 8.30647 1.75 11.4118 1.75 15.0998C1.75 17.7811 2.94167 20.8931 5.325 24.4358C7.70833 27.9785 10.75 31.3165 14.45 34.4498ZM14.45 36.7998C9.61667 32.5998 6 28.6998 3.6 25.0998C1.2 21.4998 0 18.1665 0 15.0998C0 11.1331 1.35833 7.6748 4.075 4.7248C6.79167 1.7748 10.25 0.299805 14.45 0.299805C18.65 0.299805 22.1083 1.7748 24.825 4.7248C27.5417 7.6748 28.9 11.1331 28.9 15.0998C28.9 18.1665 27.7 21.4998 25.3 25.0998C22.9 28.6998 19.2833 32.5998 14.45 36.7998Z" fill="#271B75"/>
</svg>
